<svg xmlns="http://www.w3.org/2000/svg" width="512" height="512" viewBox="0 0 512 512" version="1.1"><path d="M 223.564 1.625 C 189.116 6.037, 148.947 20.301, 120.811 38.112 C 88.146 58.791, 58.791 88.146, 38.112 120.811 C 24.679 142.030, 11.372 174.858, 5.607 201 C -0.045 226.628, -1.671 260.991, 1.536 287.030 C 10.196 357.364, 47.940 421.458, 105.368 463.352 C 132.560 483.189, 167.874 499.081, 201.066 506.419 C 226.181 511.971, 259.987 513.582, 286.441 510.488 C 349.786 503.078, 410.477 470.394, 451.687 421.500 C 483.128 384.195, 505.455 333.267, 510.283 287.838 C 510.916 281.877, 511.787 277, 512.217 277 C 512.648 277, 512.964 266.988, 512.921 254.750 C 512.878 242.512, 512.566 233.175, 512.229 234 C 511.891 234.825, 511.041 230.441, 510.338 224.258 C 505.304 179.926, 485.352 132.642, 456.219 96 C 446.540 83.825, 428.152 65.440, 416 55.787 C 378.526 26.019, 334.104 7.332, 287.030 1.536 C 271.561 -0.369, 238.774 -0.323, 223.564 1.625 M 238 97.096 C 185.872 102.914, 138.747 135.698, 114.657 182.903 C 102.999 205.748, 97.571 228.954, 97.676 255.500 C 97.766 278.156, 101.398 296.156, 110.066 316.900 C 112.230 322.078, 114 327.041, 114 327.928 C 114 328.815, 110.400 346.989, 106 368.313 C 101.600 389.638, 98 408.347, 98 409.888 C 98 412.817, 100.643 415.999, 103.079 416.002 C 103.860 416.003, 122.643 411.700, 144.818 406.441 L 185.136 396.879 193.318 400.354 C 203.283 404.586, 214.673 408.171, 226 410.641 C 232.801 412.124, 238.798 412.495, 256 412.497 C 274.841 412.500, 278.779 412.214, 287.844 410.184 C 337.068 399.161, 376.126 369.043, 397.923 325.302 C 410.801 299.460, 416.567 270.015, 414.124 242.579 C 412.096 219.818, 407.630 203.931, 397.514 183.500 C 368.341 124.583, 303.999 89.731, 238 97.096 M 245.500 131.093 C 229.075 132.390, 214.840 136.530, 199 144.617 C 145.097 172.135, 119.235 235.151, 137.997 293.259 C 139.638 298.341, 143.181 306.862, 145.869 312.193 L 150.757 321.885 145.845 345.648 C 143.143 358.717, 141.060 369.933, 141.216 370.572 C 141.410 371.365, 149.124 369.929, 165.497 366.054 L 189.494 360.374 200.497 365.583 C 212.855 371.434, 223.905 375.127, 235 377.114 C 245.629 379.019, 268.469 378.781, 279.275 376.654 C 324.057 367.838, 360.859 335.151, 374.394 292.172 C 388.404 247.682, 376.177 198.777, 342.912 166.253 C 332.661 156.230, 325.254 150.873, 313 144.617 C 291.296 133.538, 269.594 129.190, 245.500 131.093 M 199.224 179.041 C 194.809 180.814, 183.276 193.694, 179.827 200.703 C 176.691 207.076, 176.501 208.070, 176.518 217.982 C 176.540 230.613, 178.808 238.996, 185.819 252.357 C 199.552 278.527, 236.786 312.752, 263.900 324.127 C 284.667 332.839, 305.705 334.272, 318.324 327.835 C 323.830 325.026, 332.263 316.857, 337.038 309.705 C 342.011 302.259, 342.352 297.541, 338.250 292.960 C 335.886 290.321, 333.041 289.182, 318.002 284.854 C 296.816 278.758, 295.806 278.808, 288.062 286.354 C 281.520 292.727, 279.305 294, 274.757 294 C 268.196 294, 250.751 281.628, 233.864 265 C 215.011 246.435, 213.556 241.955, 222.500 230 C 226.565 224.566, 228 221.789, 228 219.355 C 228 216.459, 219.813 196.394, 213.911 184.826 C 211.033 179.183, 204.892 176.765, 199.224 179.041 M 0.428 256 C 0.428 268.375, 0.571 273.438, 0.747 267.250 C 0.922 261.063, 0.922 250.938, 0.747 244.750 C 0.571 238.563, 0.428 243.625, 0.428 256" stroke="none" fill="#29a71a" fill-rule="evenodd"/><path d="M 238 97.096 C 185.872 102.914, 138.747 135.698, 114.657 182.903 C 102.999 205.748, 97.571 228.954, 97.676 255.500 C 97.766 278.156, 101.398 296.156, 110.066 316.900 C 112.230 322.078, 114 327.041, 114 327.928 C 114 328.815, 110.400 346.989, 106 368.313 C 101.600 389.638, 98 408.347, 98 409.888 C 98 412.817, 100.643 415.999, 103.079 416.002 C 103.860 416.003, 122.643 411.700, 144.818 406.441 L 185.136 396.879 193.318 400.354 C 203.283 404.586, 214.673 408.171, 226 410.641 C 232.801 412.124, 238.798 412.495, 256 412.497 C 274.841 412.500, 278.779 412.214, 287.844 410.184 C 337.068 399.161, 376.126 369.043, 397.923 325.302 C 410.801 299.460, 416.567 270.015, 414.124 242.579 C 412.096 219.818, 407.630 203.931, 397.514 183.500 C 368.341 124.583, 303.999 89.731, 238 97.096 M 245.500 131.093 C 229.075 132.390, 214.840 136.530, 199 144.617 C 145.097 172.135, 119.235 235.151, 137.997 293.259 C 139.638 298.341, 143.181 306.862, 145.869 312.193 L 150.757 321.885 145.845 345.648 C 143.143 358.717, 141.060 369.933, 141.216 370.572 C 141.410 371.365, 149.124 369.929, 165.497 366.054 L 189.494 360.374 200.497 365.583 C 212.855 371.434, 223.905 375.127, 235 377.114 C 245.629 379.019, 268.469 378.781, 279.275 376.654 C 324.057 367.838, 360.859 335.151, 374.394 292.172 C 388.404 247.682, 376.177 198.777, 342.912 166.253 C 332.661 156.230, 325.254 150.873, 313 144.617 C 291.296 133.538, 269.594 129.190, 245.500 131.093 M 199.224 179.041 C 194.809 180.814, 183.276 193.694, 179.827 200.703 C 176.691 207.076, 176.501 208.070, 176.518 217.982 C 176.540 230.613, 178.808 238.996, 185.819 252.357 C 199.552 278.527, 236.786 312.752, 263.900 324.127 C 284.667 332.839, 305.705 334.272, 318.324 327.835 C 323.830 325.026, 332.263 316.857, 337.038 309.705 C 342.011 302.259, 342.352 297.541, 338.250 292.960 C 335.886 290.321, 333.041 289.182, 318.002 284.854 C 296.816 278.758, 295.806 278.808, 288.062 286.354 C 281.520 292.727, 279.305 294, 274.757 294 C 268.196 294, 250.751 281.628, 233.864 265 C 215.011 246.435, 213.556 241.955, 222.500 230 C 226.565 224.566, 228 221.789, 228 219.355 C 228 216.459, 219.813 196.394, 213.911 184.826 C 211.033 179.183, 204.892 176.765, 199.224 179.041" stroke="none" fill="#fafbfa" fill-rule="evenodd"/></svg>